<?xml version="1.0" encoding="UTF-8"?>
<svg xmlns="http://www.w3.org/2000/svg" xmlns:xlink="http://www.w3.org/1999/xlink" width="16px" height="10px" viewBox="0 0 16 10" version="1.1">
<g id="surface1">
<path style=" stroke:none;fill-rule:nonzero;fill:rgb(100%,100%,100%);fill-opacity:1;" d="M 14.566406 0.207031 L 14.726562 0.207031 C 14.773438 0.207031 14.816406 0.210938 14.863281 0.210938 C 14.941406 0.210938 15.039062 0.21875 15.128906 0.234375 C 15.214844 0.25 15.289062 0.269531 15.359375 0.304688 C 15.5 0.375 15.613281 0.488281 15.683594 0.625 C 15.71875 0.691406 15.742188 0.765625 15.757812 0.847656 C 15.773438 0.9375 15.78125 1.03125 15.78125 1.109375 C 15.785156 1.152344 15.785156 1.195312 15.785156 1.238281 C 15.785156 1.292969 15.785156 1.347656 15.785156 1.398438 L 15.785156 8.601562 C 15.785156 8.652344 15.785156 8.707031 15.785156 8.761719 C 15.785156 8.804688 15.785156 8.847656 15.78125 8.890625 C 15.78125 8.96875 15.773438 9.0625 15.757812 9.152344 C 15.746094 9.230469 15.71875 9.304688 15.683594 9.375 C 15.613281 9.511719 15.5 9.625 15.355469 9.695312 C 15.285156 9.730469 15.210938 9.753906 15.128906 9.765625 C 15.042969 9.78125 14.953125 9.789062 14.863281 9.789062 C 14.816406 9.789062 14.773438 9.792969 14.726562 9.792969 C 14.671875 9.792969 14.617188 9.792969 14.566406 9.792969 L 1.433594 9.792969 C 1.378906 9.792969 1.324219 9.792969 1.273438 9.792969 C 1.226562 9.792969 1.183594 9.789062 1.136719 9.789062 C 1.046875 9.789062 0.957031 9.78125 0.871094 9.765625 C 0.789062 9.753906 0.714844 9.730469 0.640625 9.695312 C 0.570312 9.660156 0.507812 9.613281 0.453125 9.558594 C 0.398438 9.503906 0.351562 9.441406 0.316406 9.375 C 0.28125 9.304688 0.253906 9.230469 0.242188 9.152344 C 0.226562 9.066406 0.21875 8.980469 0.21875 8.890625 C 0.214844 8.847656 0.214844 8.804688 0.214844 8.761719 L 0.214844 1.238281 C 0.214844 1.195312 0.214844 1.152344 0.21875 1.109375 C 0.21875 1.03125 0.222656 0.9375 0.242188 0.847656 C 0.253906 0.769531 0.28125 0.695312 0.316406 0.625 C 0.386719 0.488281 0.5 0.375 0.640625 0.304688 C 0.714844 0.269531 0.789062 0.246094 0.871094 0.234375 C 0.957031 0.21875 1.046875 0.210938 1.136719 0.210938 C 1.183594 0.210938 1.226562 0.207031 1.273438 0.207031 L 14.566406 0.207031 "/>
<path style=" stroke:none;fill-rule:nonzero;fill:rgb(0%,0%,0%);fill-opacity:1;" d="M 14.566406 0.207031 L 14.726562 0.207031 C 14.773438 0.207031 14.816406 0.210938 14.863281 0.210938 C 14.941406 0.210938 15.039062 0.21875 15.128906 0.234375 C 15.214844 0.25 15.289062 0.269531 15.359375 0.304688 C 15.5 0.375 15.613281 0.488281 15.683594 0.625 C 15.71875 0.691406 15.742188 0.765625 15.757812 0.847656 C 15.773438 0.9375 15.78125 1.03125 15.78125 1.109375 C 15.785156 1.152344 15.785156 1.195312 15.785156 1.238281 C 15.785156 1.292969 15.785156 1.347656 15.785156 1.398438 L 15.785156 8.601562 C 15.785156 8.652344 15.785156 8.707031 15.785156 8.761719 C 15.785156 8.804688 15.785156 8.847656 15.78125 8.890625 C 15.78125 8.96875 15.773438 9.0625 15.757812 9.152344 C 15.746094 9.230469 15.71875 9.304688 15.683594 9.375 C 15.613281 9.511719 15.5 9.625 15.355469 9.695312 C 15.285156 9.730469 15.210938 9.753906 15.128906 9.765625 C 15.042969 9.78125 14.953125 9.789062 14.863281 9.789062 C 14.816406 9.789062 14.773438 9.792969 14.726562 9.792969 C 14.671875 9.792969 14.617188 9.792969 14.566406 9.792969 L 1.433594 9.792969 C 1.378906 9.792969 1.324219 9.792969 1.273438 9.792969 C 1.226562 9.792969 1.183594 9.789062 1.136719 9.789062 C 1.046875 9.789062 0.957031 9.78125 0.871094 9.765625 C 0.789062 9.753906 0.714844 9.730469 0.640625 9.695312 C 0.570312 9.660156 0.507812 9.613281 0.453125 9.558594 C 0.398438 9.503906 0.351562 9.441406 0.316406 9.375 C 0.28125 9.304688 0.253906 9.230469 0.242188 9.152344 C 0.226562 9.066406 0.21875 8.980469 0.21875 8.890625 C 0.214844 8.847656 0.214844 8.804688 0.214844 8.761719 L 0.214844 1.238281 C 0.214844 1.195312 0.214844 1.152344 0.21875 1.109375 C 0.21875 1.03125 0.222656 0.9375 0.242188 0.847656 C 0.253906 0.769531 0.28125 0.695312 0.316406 0.625 C 0.386719 0.488281 0.5 0.375 0.640625 0.304688 C 0.714844 0.269531 0.789062 0.246094 0.871094 0.234375 C 0.957031 0.21875 1.046875 0.210938 1.136719 0.210938 C 1.183594 0.210938 1.226562 0.207031 1.273438 0.207031 L 14.566406 0.207031 M 14.566406 0 L 1.269531 0 C 1.226562 0 1.179688 0 1.132812 0.00390625 C 1.03125 0.00390625 0.929688 0.0117188 0.832031 0.0273438 C 0.730469 0.0429688 0.636719 0.0742188 0.546875 0.121094 C 0.363281 0.210938 0.21875 0.355469 0.125 0.53125 C 0.078125 0.617188 0.046875 0.714844 0.03125 0.808594 C 0.015625 0.90625 0.00390625 1.003906 0.00390625 1.105469 C 0.00390625 1.148438 0.00390625 1.195312 0.00390625 1.238281 L 0.00390625 8.761719 C 0.00390625 8.804688 0.00390625 8.851562 0.00390625 8.894531 C 0.0078125 8.996094 0.0117188 9.09375 0.03125 9.191406 C 0.0507812 9.289062 0.078125 9.378906 0.125 9.46875 C 0.21875 9.644531 0.363281 9.789062 0.546875 9.878906 C 0.636719 9.925781 0.730469 9.953125 0.832031 9.972656 C 0.929688 9.988281 1.03125 9.996094 1.132812 9.996094 C 1.179688 10 1.222656 10 1.269531 10 C 1.324219 10 1.378906 10 1.433594 10 L 14.566406 10 C 14.621094 10 14.675781 10 14.730469 10 C 14.777344 10 14.820312 10 14.867188 9.996094 C 14.96875 9.996094 15.070312 9.988281 15.167969 9.972656 C 15.269531 9.957031 15.363281 9.925781 15.453125 9.878906 C 15.636719 9.789062 15.78125 9.644531 15.875 9.46875 C 15.921875 9.378906 15.949219 9.289062 15.96875 9.191406 C 15.988281 9.09375 15.992188 8.996094 15.996094 8.894531 C 15.996094 8.851562 15.996094 8.804688 15.996094 8.761719 C 15.996094 8.707031 15.996094 8.65625 15.996094 8.601562 L 15.996094 1.398438 C 15.996094 1.34375 15.996094 1.292969 15.996094 1.238281 C 15.996094 1.195312 15.996094 1.148438 15.996094 1.105469 C 15.992188 1.003906 15.984375 0.90625 15.96875 0.808594 C 15.953125 0.710938 15.921875 0.617188 15.875 0.53125 C 15.78125 0.355469 15.636719 0.210938 15.453125 0.121094 C 15.363281 0.0742188 15.269531 0.0429688 15.167969 0.0273438 C 15.070312 0.0117188 14.96875 0.00390625 14.867188 0.00390625 C 14.820312 0 14.773438 0 14.730469 0 Z M 14.566406 0 "/>
<path style=" stroke:none;fill-rule:nonzero;fill:rgb(0%,0%,0%);fill-opacity:1;" d="M 4.769531 3 C 4.917969 2.824219 5.019531 2.582031 4.992188 2.339844 C 4.777344 2.347656 4.519531 2.480469 4.367188 2.652344 C 4.230469 2.808594 4.113281 3.054688 4.144531 3.292969 C 4.382812 3.3125 4.625 3.175781 4.769531 3 Z M 5.382812 4.535156 C 5.378906 4.011719 5.820312 3.761719 5.84375 3.75 C 5.59375 3.394531 5.207031 3.34375 5.066406 3.339844 C 4.738281 3.308594 4.425781 3.53125 4.257812 3.53125 C 4.089844 3.53125 3.832031 3.34375 3.558594 3.351562 C 3.199219 3.355469 2.867188 3.554688 2.683594 3.867188 C 2.3125 4.503906 2.589844 5.4375 2.953125 5.953125 C 3.128906 6.203125 3.34375 6.484375 3.621094 6.472656 C 3.890625 6.464844 3.992188 6.304688 4.316406 6.304688 C 4.636719 6.304688 4.730469 6.472656 5.011719 6.46875 C 5.300781 6.460938 5.484375 6.210938 5.660156 5.960938 C 5.863281 5.667969 5.949219 5.386719 5.953125 5.375 C 5.945312 5.371094 5.390625 5.164062 5.382812 4.535156 Z M 8.816406 3 C 8.710938 2.898438 8.570312 2.820312 8.40625 2.765625 C 8.242188 2.710938 8.042969 2.683594 7.820312 2.683594 C 7.675781 2.683594 7.53125 2.691406 7.386719 2.707031 C 7.269531 2.71875 7.148438 2.738281 7.03125 2.757812 L 6.996094 2.761719 L 6.996094 6.441406 L 7.339844 6.441406 L 7.339844 4.890625 C 7.457031 4.910156 7.589844 4.921875 7.734375 4.921875 C 7.929688 4.921875 8.113281 4.898438 8.277344 4.847656 C 8.433594 4.804688 8.582031 4.730469 8.710938 4.628906 C 8.835938 4.527344 8.933594 4.402344 9 4.257812 C 9.070312 4.113281 9.109375 3.941406 9.109375 3.75 C 9.109375 3.589844 9.082031 3.445312 9.03125 3.324219 C 8.984375 3.203125 8.910156 3.09375 8.816406 3 Z M 8.5 4.40625 C 8.324219 4.550781 8.074219 4.625 7.757812 4.625 C 7.671875 4.625 7.589844 4.621094 7.511719 4.613281 C 7.453125 4.609375 7.394531 4.597656 7.339844 4.585938 L 7.339844 3.019531 C 7.386719 3.011719 7.441406 3.003906 7.507812 2.996094 C 7.589844 2.988281 7.691406 2.984375 7.808594 2.984375 C 7.941406 2.984375 8.074219 3 8.199219 3.035156 C 8.308594 3.0625 8.414062 3.113281 8.503906 3.179688 C 8.585938 3.242188 8.652344 3.320312 8.695312 3.417969 C 8.742188 3.519531 8.765625 3.636719 8.765625 3.769531 C 8.765625 4.050781 8.675781 4.261719 8.5 4.40625 Z M 11.164062 6.097656 C 11.160156 5.992188 11.160156 5.890625 11.160156 5.785156 L 11.160156 4.761719 C 11.160156 4.640625 11.148438 4.515625 11.121094 4.394531 C 11.097656 4.273438 11.050781 4.15625 10.980469 4.050781 C 10.910156 3.949219 10.8125 3.863281 10.6875 3.800781 C 10.566406 3.734375 10.40625 3.703125 10.214844 3.703125 C 10.074219 3.703125 9.9375 3.71875 9.808594 3.757812 C 9.675781 3.792969 9.546875 3.851562 9.429688 3.933594 L 9.402344 3.949219 L 9.519531 4.214844 L 9.5625 4.1875 C 9.652344 4.128906 9.753906 4.082031 9.859375 4.050781 C 9.964844 4.019531 10.078125 4 10.1875 4 C 10.332031 4 10.445312 4.027344 10.527344 4.078125 C 10.613281 4.128906 10.675781 4.191406 10.714844 4.261719 C 10.757812 4.339844 10.785156 4.417969 10.796875 4.503906 C 10.808594 4.589844 10.816406 4.667969 10.816406 4.734375 L 10.816406 4.761719 C 10.304688 4.761719 9.90625 4.84375 9.640625 5.011719 C 9.363281 5.183594 9.222656 5.433594 9.222656 5.75 C 9.222656 5.839844 9.242188 5.929688 9.273438 6.023438 C 9.308594 6.113281 9.355469 6.195312 9.421875 6.265625 C 9.488281 6.335938 9.574219 6.394531 9.679688 6.4375 C 9.78125 6.480469 9.902344 6.503906 10.035156 6.503906 C 10.226562 6.503906 10.414062 6.457031 10.578125 6.359375 C 10.648438 6.316406 10.710938 6.265625 10.765625 6.214844 C 10.789062 6.191406 10.808594 6.167969 10.828125 6.144531 L 10.84375 6.144531 L 10.875 6.441406 L 11.207031 6.441406 L 11.195312 6.394531 C 11.179688 6.296875 11.167969 6.199219 11.164062 6.097656 Z M 10.816406 5.574219 C 10.816406 5.609375 10.804688 5.660156 10.789062 5.71875 C 10.765625 5.78125 10.734375 5.84375 10.695312 5.898438 C 10.609375 6.023438 10.484375 6.117188 10.335938 6.164062 C 10.246094 6.191406 10.15625 6.207031 10.0625 6.203125 C 10 6.203125 9.9375 6.195312 9.878906 6.175781 C 9.824219 6.15625 9.769531 6.125 9.726562 6.085938 C 9.679688 6.042969 9.644531 5.992188 9.621094 5.933594 C 9.59375 5.871094 9.578125 5.796875 9.578125 5.707031 C 9.578125 5.566406 9.617188 5.449219 9.695312 5.363281 C 9.78125 5.269531 9.886719 5.203125 10.003906 5.160156 C 10.136719 5.109375 10.277344 5.078125 10.417969 5.066406 C 10.550781 5.054688 10.683594 5.050781 10.816406 5.050781 Z M 13.5 3.761719 L 12.859375 5.46875 C 12.816406 5.570312 12.78125 5.675781 12.746094 5.773438 C 12.730469 5.824219 12.714844 5.875 12.699219 5.917969 L 12.6875 5.917969 C 12.671875 5.867188 12.652344 5.820312 12.636719 5.769531 C 12.605469 5.667969 12.566406 5.570312 12.53125 5.476562 L 11.84375 3.761719 L 11.476562 3.761719 L 12.460938 6.230469 C 12.484375 6.289062 12.488281 6.316406 12.488281 6.328125 C 12.488281 6.328125 12.488281 6.351562 12.460938 6.425781 C 12.40625 6.558594 12.335938 6.6875 12.25 6.804688 C 12.171875 6.90625 12.101562 6.992188 12.035156 7.054688 C 11.960938 7.128906 11.882812 7.1875 11.804688 7.234375 C 11.726562 7.28125 11.652344 7.316406 11.589844 7.34375 L 11.550781 7.363281 L 11.671875 7.644531 L 11.707031 7.632812 C 11.738281 7.621094 11.796875 7.59375 11.886719 7.550781 C 11.976562 7.507812 12.074219 7.441406 12.183594 7.347656 C 12.277344 7.265625 12.359375 7.175781 12.429688 7.074219 C 12.503906 6.972656 12.574219 6.855469 12.644531 6.722656 C 12.714844 6.589844 12.785156 6.4375 12.855469 6.273438 C 12.925781 6.109375 12.996094 5.921875 13.074219 5.722656 L 13.867188 3.761719 Z M 13.5 3.761719 "/>
</g>
</svg>
