<?xml version="1.0" encoding="UTF-8"?>
<svg xmlns="http://www.w3.org/2000/svg" xmlns:xlink="http://www.w3.org/1999/xlink" width="16px" height="16px" viewBox="0 0 16 16" version="1.1">
<g id="surface1">
<path style=" stroke:none;fill-rule:nonzero;fill:rgb(0%,0%,0%);fill-opacity:1;" d="M 8.863281 8.816406 C 8.605469 8.667969 8.25 8.667969 7.960938 8.667969 L 7.007812 8.667969 L 7.007812 10.628906 L 7.882812 10.628906 C 8.203125 10.628906 8.617188 10.652344 8.894531 10.457031 C 9.152344 10.285156 9.296875 9.945312 9.296875 9.625 C 9.296875 9.324219 9.117188 8.96875 8.863281 8.816406 Z M 8.503906 7.144531 C 8.714844 6.984375 8.824219 6.695312 8.824219 6.429688 C 8.824219 6.144531 8.691406 5.867188 8.449219 5.71875 C 8.191406 5.570312 7.722656 5.601562 7.421875 5.601562 L 7.007812 5.601562 L 7.007812 7.328125 L 7.558594 7.328125 C 7.867188 7.328125 8.238281 7.351562 8.503906 7.144531 Z M 13.1875 0 L 2.8125 0 C 1.257812 0 0 1.257812 0 2.8125 L 0 13.1875 C 0 14.742188 1.257812 16 2.8125 16 L 13.1875 16 C 14.742188 16 16 14.742188 16 13.1875 L 16 2.8125 C 16 1.257812 14.742188 0 13.1875 0 Z M 8.433594 12.089844 L 5.164062 12.089844 L 5.164062 4.199219 L 8.738281 4.199219 C 9.769531 4.199219 10.726562 4.859375 10.726562 6.019531 C 10.726562 6.917969 10.226562 7.53125 9.585938 7.722656 L 9.585938 7.746094 C 10.535156 7.941406 11.210938 8.457031 11.210938 9.695312 C 11.210938 10.84375 10.425781 12.089844 8.433594 12.089844 Z M 8.433594 12.089844 "/>
</g>
</svg>
