<?xml version="1.0" encoding="UTF-8"?>
<svg xmlns="http://www.w3.org/2000/svg" xmlns:xlink="http://www.w3.org/1999/xlink" width="16px" height="16px" viewBox="0 0 16 16" version="1.1">
<g id="surface1">
<path style=" stroke:none;fill-rule:nonzero;fill:rgb(95.294118%,72.941176%,18.431373%);fill-opacity:1;" d="M 4.894531 6.722656 L 8 3.617188 L 11.109375 6.726562 L 12.917969 4.917969 L 8 0 L 3.085938 4.914062 L 4.894531 6.722656 M 0 8 L 1.808594 6.191406 L 3.617188 8 L 1.808594 9.808594 Z M 4.894531 9.277344 L 8 12.382812 L 11.109375 9.273438 L 12.917969 11.082031 L 8 16 L 3.082031 11.082031 L 4.894531 9.277344 M 12.382812 8 L 14.191406 6.191406 L 16 8 L 14.191406 9.808594 Z M 12.382812 8 "/>
<path style=" stroke:none;fill-rule:nonzero;fill:rgb(95.294118%,72.941176%,18.431373%);fill-opacity:1;" d="M 9.832031 8 L 9.835938 8 L 8 6.164062 L 6.164062 8 L 8 9.835938 L 9.835938 8 L 9.832031 8 "/>
</g>
</svg>
