<?xml version="1.0" encoding="UTF-8"?>

<svg xmlns="http://www.w3.org/2000/svg" xmlns:xlink="http://www.w3.org/1999/xlink" width="16px" height="16px" viewBox="0 0 16 16" version="1.1">
<g id="surface1">
<path style=" stroke:none;fill-rule:nonzero;fill:rgb(9.803922%,46.27451%,82.352941%);fill-opacity:1;" d="M 14.5 13.75 L 1.5 13.75 C 0.800781 13.75 0.25 13.199219 0.25 12.5 L 0.25 3.5 C 0.25 2.800781 0.800781 2.25 1.5 2.25 L 14.5 2.25 C 15.199219 2.25 15.75 2.800781 15.75 3.5 L 15.75 12.5 C 15.75 13.199219 15.199219 13.75 14.5 13.75 Z M 14.5 13.75 "/>
<path style=" stroke:none;fill-rule:nonzero;fill:rgb(14.901961%,19.607843%,21.960784%);fill-opacity:1;" d="M 0.25 3.5 L 15.75 3.5 L 15.75 6 L 0.25 6 Z M 0.25 3.5 "/>
<path style=" stroke:none;fill-rule:nonzero;fill:rgb(87.843137%,96.862745%,98.039216%);fill-opacity:1;" d="M 2.25 6.25 L 13.75 6.25 L 13.75 8.25 L 2.25 8.25 Z M 2.25 6.25 "/>
<path style="fill:none;stroke-width:1;stroke-linecap:butt;stroke-linejoin:miter;stroke:rgb(8.235294%,39.607843%,75.294118%);stroke-opacity:1;stroke-miterlimit:10;" d="M 9.5 28.59375 L 12.59375 25.5 " transform="matrix(0.25,0,0,0.25,0,0)"/>
<path style="fill:none;stroke-width:1;stroke-linecap:butt;stroke-linejoin:miter;stroke:rgb(8.235294%,39.607843%,75.294118%);stroke-opacity:1;stroke-miterlimit:10;" d="M 11.703125 32.5 L 18.703125 25.5 " transform="matrix(0.25,0,0,0.25,0,0)"/>
<path style="fill:none;stroke-width:1;stroke-linecap:butt;stroke-linejoin:miter;stroke:rgb(8.235294%,39.607843%,75.294118%);stroke-opacity:1;stroke-miterlimit:10;" d="M 24.796875 25.5 L 17.796875 32.5 " transform="matrix(0.25,0,0,0.25,0,0)"/>
<path style="fill:none;stroke-width:1;stroke-linecap:butt;stroke-linejoin:miter;stroke:rgb(8.235294%,39.607843%,75.294118%);stroke-opacity:1;stroke-miterlimit:10;" d="M 30.90625 25.5 L 23.90625 32.5 " transform="matrix(0.25,0,0,0.25,0,0)"/>
<path style="fill:none;stroke-width:1;stroke-linecap:butt;stroke-linejoin:miter;stroke:rgb(8.235294%,39.607843%,75.294118%);stroke-opacity:1;stroke-miterlimit:10;" d="M 37 25.5 L 30 32.5 " transform="matrix(0.25,0,0,0.25,0,0)"/>
<path style="fill:none;stroke-width:1;stroke-linecap:butt;stroke-linejoin:miter;stroke:rgb(8.235294%,39.607843%,75.294118%);stroke-opacity:1;stroke-miterlimit:10;" d="M 43.09375 25.5 L 36.09375 32.5 " transform="matrix(0.25,0,0,0.25,0,0)"/>
<path style="fill:none;stroke-width:1;stroke-linecap:butt;stroke-linejoin:miter;stroke:rgb(8.235294%,39.607843%,75.294118%);stroke-opacity:1;stroke-miterlimit:10;" d="M 49.296875 25.5 L 42.296875 32.5 " transform="matrix(0.25,0,0,0.25,0,0)"/>
<path style="fill:none;stroke-width:1;stroke-linecap:butt;stroke-linejoin:miter;stroke:rgb(8.235294%,39.607843%,75.294118%);stroke-opacity:1;stroke-miterlimit:10;" d="M 54.5 26.40625 L 48.40625 32.5 " transform="matrix(0.25,0,0,0.25,0,0)"/>
<path style="fill:none;stroke-width:1;stroke-linecap:butt;stroke-linejoin:miter;stroke:rgb(98.431373%,75.294118%,17.647059%);stroke-opacity:1;stroke-miterlimit:10;" d="M 12.59375 28.5 L 15.59375 25.5 " transform="matrix(0.25,0,0,0.25,0,0)"/>
<path style="fill:none;stroke-width:1;stroke-linecap:butt;stroke-linejoin:miter;stroke:rgb(98.431373%,75.294118%,17.647059%);stroke-opacity:1;stroke-miterlimit:10;" d="M 21.703125 25.5 L 18.703125 28.5 " transform="matrix(0.25,0,0,0.25,0,0)"/>
<path style="fill:none;stroke-width:1;stroke-linecap:butt;stroke-linejoin:miter;stroke:rgb(98.431373%,75.294118%,17.647059%);stroke-opacity:1;stroke-miterlimit:10;" d="M 27.90625 25.5 L 24.90625 28.5 " transform="matrix(0.25,0,0,0.25,0,0)"/>
<path style="fill:none;stroke-width:1;stroke-linecap:butt;stroke-linejoin:miter;stroke:rgb(98.431373%,75.294118%,17.647059%);stroke-opacity:1;stroke-miterlimit:10;" d="M 34 25.5 L 31 28.5 " transform="matrix(0.25,0,0,0.25,0,0)"/>
<path style="fill:none;stroke-width:1;stroke-linecap:butt;stroke-linejoin:miter;stroke:rgb(98.431373%,75.294118%,17.647059%);stroke-opacity:1;stroke-miterlimit:10;" d="M 40.09375 25.5 L 37.09375 28.5 " transform="matrix(0.25,0,0,0.25,0,0)"/>
<path style="fill:none;stroke-width:1;stroke-linecap:butt;stroke-linejoin:miter;stroke:rgb(98.431373%,75.294118%,17.647059%);stroke-opacity:1;stroke-miterlimit:10;" d="M 46.203125 25.5 L 43.203125 28.5 " transform="matrix(0.25,0,0,0.25,0,0)"/>
<path style="fill:none;stroke-width:1;stroke-linecap:butt;stroke-linejoin:miter;stroke:rgb(98.431373%,75.294118%,17.647059%);stroke-opacity:1;stroke-miterlimit:10;" d="M 52.296875 25.5 L 49.296875 28.5 " transform="matrix(0.25,0,0,0.25,0,0)"/>
<path style="fill:none;stroke-width:1;stroke-linecap:butt;stroke-linejoin:miter;stroke:rgb(77.647059%,15.686275%,15.686275%);stroke-opacity:1;stroke-miterlimit:10;" d="M 54.5 29.40625 L 51.40625 32.5 " transform="matrix(0.25,0,0,0.25,0,0)"/>
<path style="fill:none;stroke-width:1;stroke-linecap:butt;stroke-linejoin:miter;stroke:rgb(77.647059%,15.686275%,15.686275%);stroke-opacity:1;stroke-miterlimit:10;" d="M 11.59375 29.5 L 9.5 31.59375 " transform="matrix(0.25,0,0,0.25,0,0)"/>
<path style="fill:none;stroke-width:1;stroke-linecap:butt;stroke-linejoin:miter;stroke:rgb(77.647059%,15.686275%,15.686275%);stroke-opacity:1;stroke-miterlimit:10;" d="M 17.703125 29.5 L 14.703125 32.5 " transform="matrix(0.25,0,0,0.25,0,0)"/>
<path style="fill:none;stroke-width:1;stroke-linecap:butt;stroke-linejoin:miter;stroke:rgb(77.647059%,15.686275%,15.686275%);stroke-opacity:1;stroke-miterlimit:10;" d="M 20.90625 32.5 L 23.90625 29.5 " transform="matrix(0.25,0,0,0.25,0,0)"/>
<path style="fill:none;stroke-width:1;stroke-linecap:butt;stroke-linejoin:miter;stroke:rgb(77.647059%,15.686275%,15.686275%);stroke-opacity:1;stroke-miterlimit:10;" d="M 27 32.5 L 30 29.5 " transform="matrix(0.25,0,0,0.25,0,0)"/>
<path style="fill:none;stroke-width:1;stroke-linecap:butt;stroke-linejoin:miter;stroke:rgb(77.647059%,15.686275%,15.686275%);stroke-opacity:1;stroke-miterlimit:10;" d="M 33.09375 32.5 L 36.09375 29.5 " transform="matrix(0.25,0,0,0.25,0,0)"/>
<path style="fill:none;stroke-width:1;stroke-linecap:butt;stroke-linejoin:miter;stroke:rgb(77.647059%,15.686275%,15.686275%);stroke-opacity:1;stroke-miterlimit:10;" d="M 39.203125 32.5 L 42.203125 29.5 " transform="matrix(0.25,0,0,0.25,0,0)"/>
<path style="fill:none;stroke-width:1;stroke-linecap:butt;stroke-linejoin:miter;stroke:rgb(77.647059%,15.686275%,15.686275%);stroke-opacity:1;stroke-miterlimit:10;" d="M 45.296875 32.5 L 48.296875 29.5 " transform="matrix(0.25,0,0,0.25,0,0)"/>
<path style="fill:none;stroke-width:1;stroke-linecap:butt;stroke-linejoin:miter;stroke:rgb(87.843137%,87.843137%,87.843137%);stroke-opacity:1;stroke-miterlimit:10;" d="M 52 47.5 L 48 47.5 C 45 47.5 42.5 45 42.5 42 C 42.5 39 45 36.5 48 36.5 L 52 36.5 C 55 36.5 57.5 39 57.5 42 C 57.5 45 55 47.5 52 47.5 Z M 52 47.5 " transform="matrix(0.25,0,0,0.25,0,0)"/>
<path style=" stroke:none;fill-rule:nonzero;fill:rgb(82.745098%,18.431373%,18.431373%);fill-opacity:1;" d="M 12 9.625 C 12.175781 9.625 12.351562 9.675781 12.5 9.773438 C 12.273438 9.925781 12.125 10.199219 12.125 10.5 L 12.875 10.5 C 12.875 10.800781 12.726562 11.050781 12.5 11.226562 C 12.351562 11.324219 12.175781 11.375 12 11.375 C 11.523438 11.375 11.125 10.976562 11.125 10.5 C 11.125 10.023438 11.523438 9.625 12 9.625 Z M 12 9.625 "/>
<path style=" stroke:none;fill-rule:nonzero;fill:rgb(96.078431%,48.627451%,0%);fill-opacity:1;" d="M 12.125 10.5 C 12.125 10.199219 12.273438 9.949219 12.5 9.773438 C 12.648438 9.675781 12.824219 9.625 13 9.625 C 13.476562 9.625 13.875 10.023438 13.875 10.5 C 13.875 10.976562 13.476562 11.375 13 11.375 C 12.824219 11.375 12.648438 11.324219 12.5 11.226562 C 12.726562 11.074219 12.875 10.800781 12.875 10.5 Z M 12.125 10.5 "/>
<path style="fill:none;stroke-width:1;stroke-linecap:butt;stroke-linejoin:miter;stroke:rgb(87.843137%,87.843137%,87.843137%);stroke-opacity:1;stroke-miterlimit:10;" d="M 18 36.5 L 11 36.5 " transform="matrix(0.25,0,0,0.25,0,0)"/>
<path style="fill:none;stroke-width:1;stroke-linecap:butt;stroke-linejoin:miter;stroke:rgb(87.843137%,87.843137%,87.843137%);stroke-opacity:1;stroke-miterlimit:10;" d="M 10 36.5 L 6 36.5 " transform="matrix(0.25,0,0,0.25,0,0)"/>
<path style="fill:none;stroke-width:1;stroke-linecap:butt;stroke-linejoin:miter;stroke:rgb(87.843137%,87.843137%,87.843137%);stroke-opacity:1;stroke-miterlimit:10;" d="M 28 36.5 L 19 36.5 " transform="matrix(0.25,0,0,0.25,0,0)"/>
<path style="fill:none;stroke-width:1;stroke-linecap:butt;stroke-linejoin:miter;stroke:rgb(87.843137%,87.843137%,87.843137%);stroke-opacity:1;stroke-miterlimit:10;" d="M 22 38.5 L 28 38.5 " transform="matrix(0.25,0,0,0.25,0,0)"/>
<path style="fill:none;stroke-width:1;stroke-linecap:butt;stroke-linejoin:miter;stroke:rgb(87.843137%,87.843137%,87.843137%);stroke-opacity:1;stroke-miterlimit:10;" d="M 6 38.5 L 21 38.5 " transform="matrix(0.25,0,0,0.25,0,0)"/>
<path style="fill:none;stroke-width:1;stroke-linecap:butt;stroke-linejoin:miter;stroke:rgb(87.843137%,87.843137%,87.843137%);stroke-opacity:1;stroke-miterlimit:10;" d="M 22 42.5 L 28 42.5 " transform="matrix(0.25,0,0,0.25,0,0)"/>
<path style="fill:none;stroke-width:1;stroke-linecap:butt;stroke-linejoin:miter;stroke:rgb(87.843137%,87.843137%,87.843137%);stroke-opacity:1;stroke-miterlimit:10;" d="M 10 42.5 L 6 42.5 " transform="matrix(0.25,0,0,0.25,0,0)"/>
<path style="fill:none;stroke-width:1;stroke-linecap:butt;stroke-linejoin:miter;stroke:rgb(87.843137%,87.843137%,87.843137%);stroke-opacity:1;stroke-miterlimit:10;" d="M 21 42.5 L 11 42.5 " transform="matrix(0.25,0,0,0.25,0,0)"/>
<path style="fill:none;stroke-width:1;stroke-linecap:butt;stroke-linejoin:miter;stroke:rgb(87.843137%,87.843137%,87.843137%);stroke-opacity:1;stroke-miterlimit:10;" d="M 28 44.5 L 20 44.5 " transform="matrix(0.25,0,0,0.25,0,0)"/>
<path style="fill:none;stroke-width:1;stroke-linecap:butt;stroke-linejoin:miter;stroke:rgb(87.843137%,87.843137%,87.843137%);stroke-opacity:1;stroke-miterlimit:10;" d="M 19 44.5 L 6 44.5 " transform="matrix(0.25,0,0,0.25,0,0)"/>
<path style="fill:none;stroke-width:1;stroke-linecap:butt;stroke-linejoin:miter;stroke:rgb(87.843137%,87.843137%,87.843137%);stroke-opacity:1;stroke-miterlimit:10;" d="M 28 46.5 L 18 46.5 " transform="matrix(0.25,0,0,0.25,0,0)"/>
<path style="fill:none;stroke-width:1;stroke-linecap:butt;stroke-linejoin:miter;stroke:rgb(87.843137%,87.843137%,87.843137%);stroke-opacity:1;stroke-miterlimit:10;" d="M 6 46.5 L 17 46.5 " transform="matrix(0.25,0,0,0.25,0,0)"/>
</g>
</svg>
