<svg width="24" height="24" viewBox="0 0 24 24" fill="none" xmlns="http://www.w3.org/2000/svg">
<circle cx="12" cy="12" r="10.5" stroke="#343EDF" stroke-width="3"/>
<path d="M11.1189 15.9297C11.3535 16.1615 11.6717 16.2918 12.0034 16.2918C12.3352 16.2918 12.6533 16.1615 12.8879 15.9297C13.1225 15.6979 13.2543 15.3835 13.2543 15.0557C13.3008 14.6914 13.4293 14.3421 13.6304 14.0335C13.8315 13.7248 14.1 13.4646 14.4163 13.272C15.0267 12.9387 15.5599 12.483 15.9816 11.9341C16.4033 11.3852 16.7043 10.7553 16.8651 10.0847C17.026 9.41412 17.0432 8.71771 16.9156 8.04017C16.7881 7.36263 16.5186 6.71892 16.1246 6.15034C15.7305 5.58176 15.2204 5.10088 14.6272 4.73854C14.034 4.3762 13.3707 4.14042 12.6798 4.04631C11.9889 3.95221 11.2858 4.00186 10.6155 4.19209C9.94518 4.38232 9.32253 4.70893 8.78747 5.15095C8.22762 5.61512 7.77746 6.19486 7.46865 6.84939C7.15984 7.50392 6.99987 8.21736 7 8.93954C7 9.26736 7.13179 9.58177 7.36637 9.81358C7.60095 10.0454 7.91911 10.1756 8.25085 10.1756C8.5826 10.1756 8.90076 10.0454 9.13534 9.81358C9.36992 9.58177 9.50171 9.26736 9.50171 8.93954C9.50093 8.57644 9.58111 8.21763 9.73653 7.88861C9.89195 7.5596 10.1188 7.26845 10.401 7.03588C10.6831 6.8033 11.0137 6.635 11.3691 6.54294C11.7245 6.45088 12.0961 6.43732 12.4575 6.50322C12.9525 6.59843 13.4074 6.83754 13.764 7.1899C14.1205 7.54226 14.3625 7.99182 14.4588 8.48095C14.5582 8.99305 14.4906 9.5231 14.2658 9.99486C14.0411 10.4666 13.6707 10.8558 13.208 11.1064C12.4999 11.5123 11.9048 12.0857 11.4762 12.775C11.0477 13.4643 10.799 14.248 10.7526 15.0557C10.7526 15.3835 10.8843 15.6979 11.1189 15.9297Z" fill="#23D288"/>
<path d="M11.3085 17.7362C11.5142 17.6003 11.756 17.5278 12.0034 17.5278C12.3352 17.5278 12.6533 17.6581 12.8879 17.8899C13.1225 18.1217 13.2543 18.4361 13.2543 18.7639C13.2543 19.0084 13.1809 19.2474 13.0435 19.4506C12.906 19.6539 12.7107 19.8124 12.4821 19.9059C12.2535 19.9995 12.002 20.0239 11.7594 19.9762C11.5167 19.9286 11.2939 19.8108 11.1189 19.638C10.944 19.4651 10.8249 19.2448 10.7766 19.0051C10.7283 18.7653 10.7531 18.5168 10.8478 18.2909C10.9425 18.065 11.1028 17.872 11.3085 17.7362Z" fill="#23D288"/>
</svg>
