<svg width="24" height="24" viewBox="0 0 24 24" fill="none" xmlns="http://www.w3.org/2000/svg">
<path d="M7.40006 5.55294C7.30779 5.39795 7.17684 5.26959 7.02003 5.18045C6.86322 5.0913 6.68594 5.04443 6.50556 5.04443C6.32518 5.04443 6.1479 5.0913 5.99109 5.18045C5.83428 5.26959 5.70333 5.39795 5.61106 5.55294L0.111059 16.5529C0.0511452 16.6705 0.0151011 16.7988 0.00500536 16.9304C-0.00509038 17.062 0.0109619 17.1943 0.0522367 17.3197C0.0935115 17.445 0.159192 17.561 0.245492 17.6608C0.331792 17.7607 0.437004 17.8424 0.555062 17.9014C0.673119 17.9604 0.801687 17.9955 0.933353 18.0045C1.06502 18.0136 1.19718 17.9965 1.32221 17.9543C1.44724 17.912 1.56267 17.8455 1.66185 17.7584C1.76103 17.6713 1.84199 17.5655 1.90006 17.4469L3.61906 13.9999H9.38306L11.1071 17.4469C11.1651 17.5655 11.2461 17.6713 11.3453 17.7584C11.4444 17.8455 11.5599 17.912 11.6849 17.9543C11.8099 17.9965 11.9421 18.0136 12.0738 18.0045C12.2054 17.9955 12.334 17.9604 12.4521 17.9014C12.5701 17.8424 12.6753 17.7607 12.7616 17.6608C12.8479 17.561 12.9136 17.445 12.9549 17.3197C12.9962 17.1943 13.0122 17.062 13.0021 16.9304C12.992 16.7988 12.956 16.6705 12.8961 16.5529L7.40006 5.55294ZM4.61906 11.9999L6.50006 8.23594L8.38306 11.9999H4.61906Z" fill="#343EDF"/>
<path d="M23 8C22.7348 8 22.4804 8.10536 22.2929 8.29289C22.1054 8.48043 22 8.73478 22 9V9.026C21.1396 8.36419 20.0855 8.00368 19 8C17.6739 8 16.4021 8.52678 15.4645 9.46447C14.5268 10.4021 14 11.6739 14 13C14 14.3261 14.5268 15.5979 15.4645 16.5355C16.4021 17.4732 17.6739 18 19 18C20.0855 17.9963 21.1396 17.6358 22 16.974V17C22 17.2652 22.1054 17.5196 22.2929 17.7071C22.4804 17.8946 22.7348 18 23 18C23.2652 18 23.5196 17.8946 23.7071 17.7071C23.8946 17.5196 24 17.2652 24 17V9C24 8.73478 23.8946 8.48043 23.7071 8.29289C23.5196 8.10536 23.2652 8 23 8ZM19 16C18.4067 16 17.8266 15.8241 17.3333 15.4944C16.8399 15.1648 16.4554 14.6962 16.2284 14.1481C16.0013 13.5999 15.9419 12.9967 16.0576 12.4147C16.1734 11.8328 16.4591 11.2982 16.8787 10.8787C17.2982 10.4591 17.8328 10.1734 18.4147 10.0576C18.9967 9.94189 19.5999 10.0013 20.1481 10.2284C20.6962 10.4554 21.1648 10.8399 21.4944 11.3333C21.8241 11.8266 22 12.4067 22 13C22 13.7956 21.6839 14.5587 21.1213 15.1213C20.5587 15.6839 19.7956 16 19 16Z" fill="#343EDF"/>
</svg>
