<?xml version="1.0" encoding="UTF-8"?>
<svg xmlns="http://www.w3.org/2000/svg" xmlns:xlink="http://www.w3.org/1999/xlink" width="16px" height="19px" viewBox="0 0 16 18" version="1.1">
<g id="surface1">
<path style=" stroke:none;fill-rule:nonzero;fill:rgb(15.294118%,20.392157%,41.568627%);fill-opacity:1;" d="M 13.574219 1.402344 C 12.703125 0.453125 11.128906 0.046875 9.113281 0.046875 L 3.269531 0.046875 C 2.855469 0.046875 2.507812 0.335938 2.441406 0.722656 L 0.0078125 15.441406 C -0.0390625 15.730469 0.195312 15.996094 0.503906 15.996094 L 4.113281 15.996094 L 5.019531 10.511719 L 4.992188 10.683594 C 5.054688 10.296875 5.402344 10.011719 5.816406 10.011719 L 7.527344 10.011719 C 10.898438 10.011719 13.535156 8.707031 14.304688 4.933594 C 14.328125 4.820312 14.347656 4.710938 14.367188 4.605469 C 14.269531 4.554688 14.269531 4.554688 14.367188 4.605469 C 14.59375 3.210938 14.363281 2.261719 13.574219 1.402344 "/>
<path style=" stroke:none;fill-rule:nonzero;fill:rgb(15.294118%,20.392157%,41.568627%);fill-opacity:1;" d="M 6.398438 4.101562 C 6.496094 4.058594 6.601562 4.035156 6.714844 4.035156 L 11.296875 4.035156 C 11.839844 4.035156 12.347656 4.070312 12.808594 4.140625 C 12.941406 4.160156 13.070312 4.183594 13.195312 4.210938 C 13.320312 4.238281 13.441406 4.265625 13.558594 4.300781 C 13.617188 4.316406 13.675781 4.332031 13.730469 4.351562 C 13.960938 4.421875 14.171875 4.507812 14.367188 4.605469 C 14.59375 3.210938 14.363281 2.261719 13.574219 1.402344 C 12.703125 0.453125 11.128906 0.046875 9.113281 0.046875 L 3.269531 0.046875 C 2.855469 0.046875 2.507812 0.335938 2.441406 0.722656 L 0.0078125 15.441406 C -0.0390625 15.730469 0.195312 15.996094 0.503906 15.996094 L 4.113281 15.996094 L 5.992188 4.625 C 6.03125 4.390625 6.1875 4.199219 6.398438 4.101562 Z M 6.398438 4.101562 "/>
<path style=" stroke:none;fill-rule:nonzero;fill:rgb(15.294118%,56.470588%,76.470588%);fill-opacity:1;" d="M 14.304688 4.933594 C 13.535156 8.707031 10.898438 10.011719 7.527344 10.011719 L 5.8125 10.011719 C 5.402344 10.011719 5.054688 10.296875 4.992188 10.683594 L 3.863281 17.5 C 3.820312 17.753906 4.027344 17.984375 4.296875 17.984375 L 7.339844 17.984375 C 7.699219 17.984375 8.003906 17.734375 8.0625 17.394531 L 8.089844 17.25 L 8.664062 13.78125 L 8.703125 13.589844 C 8.757812 13.253906 9.0625 13.003906 9.425781 13.003906 L 9.878906 13.003906 C 12.824219 13.003906 15.132812 11.859375 15.808594 8.558594 C 16.089844 7.179688 15.941406 6.027344 15.199219 5.21875 C 14.972656 4.972656 14.691406 4.769531 14.367188 4.605469 C 14.347656 4.710938 14.328125 4.820312 14.304688 4.933594 Z M 14.304688 4.933594 "/>
<path style=" stroke:none;fill-rule:nonzero;fill:rgb(12.156863%,14.901961%,30.980392%);fill-opacity:1;" d="M 13.558594 4.300781 C 13.441406 4.265625 13.320312 4.238281 13.195312 4.210938 C 13.070312 4.183594 12.941406 4.160156 12.808594 4.140625 C 12.347656 4.070312 11.839844 4.035156 11.296875 4.035156 L 6.714844 4.035156 C 6.601562 4.035156 6.496094 4.058594 6.398438 4.105469 C 6.1875 4.199219 6.03125 4.390625 5.992188 4.625 L 5.019531 10.511719 L 4.992188 10.683594 C 5.054688 10.296875 5.402344 10.011719 5.816406 10.011719 L 7.53125 10.011719 C 10.898438 10.011719 13.535156 8.707031 14.304688 4.933594 C 14.328125 4.820312 14.347656 4.710938 14.367188 4.605469 C 14.171875 4.507812 13.960938 4.421875 13.734375 4.351562 C 13.675781 4.332031 13.617188 4.316406 13.558594 4.300781 "/>
</g>
</svg>
