<svg width="24" height="25" viewBox="0 0 24 25" fill="none" xmlns="http://www.w3.org/2000/svg">
<path fill-rule="evenodd" clip-rule="evenodd" d="M2.73684 15.1465C3.69607 15.1465 4.47368 15.9095 4.47368 16.8507V20.5174C4.48872 20.5278 4.50654 20.5395 4.52752 20.5523C4.74977 20.6882 5.16384 20.8273 5.7093 20.8273H18.2907C18.8362 20.8273 19.2502 20.6882 19.4725 20.5523C19.4935 20.5395 19.5113 20.5278 19.5263 20.5174V16.8507C19.5263 15.9095 20.3039 15.1465 21.2632 15.1465C22.2224 15.1465 23 15.9095 23 16.8507V20.7124C23 22.0178 22.1384 22.9383 21.3098 23.445C20.4553 23.9676 19.3831 24.2358 18.2907 24.2358H5.7093C4.61687 24.2358 3.54471 23.9676 2.69021 23.445C1.86161 22.9383 1 22.0178 1 20.7124V16.8507C1 15.9095 1.77761 15.1465 2.73684 15.1465ZM19.5986 20.4564C19.5992 20.4565 19.5961 20.461 19.5873 20.4694C19.5936 20.4605 19.598 20.4563 19.5986 20.4564ZM4.40138 20.4564C4.40199 20.4563 4.40639 20.4605 4.41275 20.4694C4.40395 20.461 4.40077 20.4565 4.40138 20.4564Z" fill="#23D288"/>
<path fill-rule="evenodd" clip-rule="evenodd" d="M10.2632 11.7653L7.55476 8.42222C6.94734 7.67245 5.85309 7.56194 5.11069 8.1754C4.36829 8.78885 4.25887 9.89397 4.86629 10.6437L10.0768 17.0753L10.0868 17.0875C10.4952 17.5825 11.0341 17.7348 11.2254 17.7836C11.4971 17.853 11.7676 17.8765 12 17.8765C12.2324 17.8765 12.5028 17.853 12.7746 17.7836C12.9659 17.7348 13.5047 17.5826 13.9132 17.0875L19.1337 10.6437C19.7411 9.89397 19.6317 8.78885 18.8893 8.1754C18.1469 7.56194 17.0527 7.67245 16.4452 8.42222L13.7369 11.7653V1.99042C13.7369 1.02166 12.9593 0.236328 12 0.236328C11.0408 0.236328 10.2632 1.02166 10.2632 1.99042V11.7653Z" fill="#343EDF"/>
</svg>
