<svg width="22" height="24" viewBox="0 0 22 24" fill="none" xmlns="http://www.w3.org/2000/svg">
<path fill-rule="evenodd" clip-rule="evenodd" d="M1.73684 15C2.69607 15 3.47368 15.7555 3.47368 16.6875V20.3181C3.48872 20.3284 3.50654 20.34 3.52752 20.3527C3.74977 20.4873 4.16384 20.625 4.7093 20.625H17.2907C17.8362 20.625 18.2502 20.4873 18.4725 20.3527C18.4935 20.34 18.5113 20.3284 18.5263 20.3181V16.6875C18.5263 15.7555 19.3039 15 20.2632 15C21.2224 15 22 15.7555 22 16.6875V20.5112C22 21.8038 21.1384 22.7152 20.3098 23.2169C19.4553 23.7344 18.3831 24 17.2907 24H4.7093C3.61687 24 2.54471 23.7344 1.69021 23.2169C0.861605 22.7152 0 21.8038 0 20.5112V16.6875C0 15.7555 0.777611 15 1.73684 15ZM18.5986 20.2577C18.5992 20.2578 18.5961 20.2622 18.5873 20.2706C18.5936 20.2618 18.598 20.2576 18.5986 20.2577ZM3.40138 20.2577C3.40199 20.2576 3.40639 20.2618 3.41275 20.2706C3.40395 20.2622 3.40077 20.2578 3.40138 20.2577Z" fill="#23D288"/>
<path fill-rule="evenodd" clip-rule="evenodd" d="M13 6.22904L15.725 9.36284C16.3706 10.1054 17.5337 10.2148 18.3229 9.60728C19.112 8.99976 19.2283 7.90533 18.5826 7.16281L13.0442 0.793449L13.0336 0.781388C12.5995 0.291148 12.0267 0.140347 11.8234 0.0920071C11.5345 0.0233427 11.2471 2.62368e-06 11 2.21044e-10C10.753 -2.62236e-06 10.4655 0.0233311 10.1767 0.0919911C9.97333 0.140328 9.40056 0.291122 8.96638 0.781377L3.41737 7.16282C2.77172 7.90534 2.88802 8.99976 3.67714 9.60728C4.46627 10.2148 5.62938 10.1054 6.27503 9.36284L9 6.22903V16.2327C9 17.2087 9.89543 18 11 18C12.1046 18 13 17.2087 13 16.2327V6.22904Z" fill="#343EDF"/>
</svg>
