<?xml version="1.0" encoding="UTF-8"?>
<svg xmlns="http://www.w3.org/2000/svg" xmlns:xlink="http://www.w3.org/1999/xlink" width="16px" height="16px" viewBox="0 0 16 16" version="1.1">
<g id="surface1">
<path style=" stroke:none;fill-rule:nonzero;fill:rgb(80.392157%,96.470588%,98.823529%);fill-opacity:1;" d="M 6.296875 0.679688 C 6.296875 4.394531 9.304688 7.402344 13.019531 7.402344 C 13.925781 7.402344 14.789062 7.21875 15.582031 6.894531 L 15.582031 0.363281 L 6.3125 0.363281 C 6.308594 0.46875 6.296875 0.574219 6.296875 0.679688 Z M 6.296875 0.679688 "/>
<path style=" stroke:none;fill-rule:nonzero;fill:rgb(100%,61.568627%,61.176471%);fill-opacity:1;" d="M 14.914062 6.84375 C 14.785156 6.714844 14.601562 6.628906 14.402344 6.617188 C 13.949219 6.59375 13.582031 6.984375 13.582031 7.441406 L 13.582031 9.945312 C 13.546875 9.804688 13.476562 9.671875 13.371094 9.566406 C 13.066406 9.257812 12.570312 9.261719 12.261719 9.566406 L 10.628906 11.195312 C 10.292969 11.53125 10.109375 11.988281 10.109375 12.457031 L 10.109375 14.449219 L 12.769531 14.449219 L 12.769531 13.523438 L 14.8125 11.480469 C 15.027344 11.265625 15.148438 10.976562 15.148438 10.675781 L 15.148438 7.398438 C 15.140625 7.183594 15.054688 6.988281 14.914062 6.84375 Z M 14.914062 6.84375 "/>
<path style=" stroke:none;fill-rule:nonzero;fill:rgb(60.784314%,91.764706%,97.647059%);fill-opacity:1;" d="M 9.566406 14.445312 L 13.40625 14.445312 L 13.40625 15.398438 L 9.566406 15.398438 Z M 9.566406 14.445312 "/>
<path style=" stroke:none;fill-rule:nonzero;fill:rgb(100%,61.568627%,61.176471%);fill-opacity:1;" d="M 5.171875 11.195312 L 3.539062 9.5625 C 3.234375 9.257812 2.738281 9.253906 2.433594 9.5625 C 2.324219 9.671875 2.253906 9.804688 2.222656 9.941406 L 2.222656 7.4375 C 2.222656 6.980469 1.847656 6.589844 1.398438 6.613281 C 1.199219 6.625 1.019531 6.710938 0.886719 6.839844 C 0.746094 6.980469 0.660156 7.179688 0.660156 7.394531 L 0.660156 10.667969 C 0.660156 10.972656 0.78125 11.261719 0.996094 11.476562 L 3.039062 13.515625 L 3.039062 14.441406 L 5.699219 14.441406 L 5.699219 12.453125 C 5.695312 11.980469 5.507812 11.53125 5.171875 11.195312 Z M 5.171875 11.195312 "/>
<path style=" stroke:none;fill-rule:nonzero;fill:rgb(60.784314%,91.764706%,97.647059%);fill-opacity:1;" d="M 6.230469 15.402344 L 2.390625 15.402344 L 2.390625 14.449219 L 6.230469 14.449219 Z M 6.230469 15.402344 "/>
<path style=" stroke:none;fill-rule:nonzero;fill:rgb(91.372549%,95.686275%,73.72549%);fill-opacity:1;" d="M 12.410156 5.191406 C 12.410156 7.679688 10.390625 9.699219 7.902344 9.699219 C 5.410156 9.699219 3.390625 7.679688 3.390625 5.191406 C 3.390625 2.699219 5.410156 0.679688 7.902344 0.679688 C 10.390625 0.679688 12.410156 2.699219 12.410156 5.191406 Z M 12.410156 5.191406 "/>
<path style=" stroke:none;fill-rule:nonzero;fill:rgb(99.215686%,89.411765%,63.137255%);fill-opacity:1;" d="M 7.902344 8.417969 C 6.121094 8.417969 4.671875 6.96875 4.671875 5.191406 C 4.671875 3.410156 6.117188 1.957031 7.902344 1.957031 C 9.683594 1.957031 11.128906 3.40625 11.128906 5.1875 C 11.128906 6.964844 9.679688 8.417969 7.902344 8.417969 Z M 7.902344 8.417969 "/>
<path style=" stroke:none;fill-rule:nonzero;fill:rgb(31.372549%,31.372549%,31.372549%);fill-opacity:1;" d="M 15.085938 6.675781 C 14.90625 6.496094 14.664062 6.386719 14.414062 6.378906 C 14.144531 6.363281 13.882812 6.460938 13.675781 6.652344 C 13.460938 6.859375 13.335938 7.140625 13.335938 7.441406 L 13.335938 9.238281 C 13.179688 9.144531 13 9.09375 12.816406 9.09375 C 12.542969 9.09375 12.285156 9.199219 12.09375 9.394531 L 10.460938 11.027344 C 10.078125 11.410156 9.867188 11.917969 9.867188 12.460938 L 9.867188 14.210938 L 9.570312 14.210938 C 9.441406 14.210938 9.332031 14.320312 9.332031 14.453125 L 9.332031 15.40625 C 9.332031 15.535156 9.441406 15.644531 9.570312 15.644531 L 13.410156 15.644531 C 13.542969 15.644531 13.652344 15.535156 13.652344 15.40625 L 13.652344 14.453125 C 13.652344 14.320312 13.542969 14.210938 13.410156 14.210938 L 13.007812 14.210938 L 13.007812 13.625 L 14.980469 11.65625 C 15.242188 11.394531 15.386719 11.046875 15.386719 10.679688 L 15.386719 7.398438 C 15.386719 7.125 15.28125 6.871094 15.085938 6.675781 Z M 13.171875 15.160156 L 9.8125 15.160156 L 9.8125 14.683594 L 13.171875 14.683594 Z M 14.90625 10.671875 C 14.90625 10.910156 14.8125 11.140625 14.640625 11.308594 L 12.597656 13.351562 C 12.554688 13.394531 12.527344 13.457031 12.527344 13.519531 L 12.527344 14.203125 L 10.347656 14.203125 L 10.347656 12.453125 C 10.347656 12.042969 10.507812 11.65625 10.804688 11.363281 L 12.433594 9.730469 C 12.539062 9.628906 12.664062 9.578125 12.820312 9.570312 C 12.964844 9.570312 13.097656 9.628906 13.203125 9.730469 C 13.265625 9.792969 13.300781 9.867188 13.332031 9.945312 C 13.3125 10 13.285156 10.054688 13.246094 10.105469 C 13.234375 10.125 13.21875 10.140625 13.1875 10.175781 L 11.972656 11.660156 C 11.886719 11.761719 11.902344 11.914062 12.003906 12 C 12.046875 12.035156 12.101562 12.054688 12.15625 12.054688 C 12.226562 12.054688 12.292969 12.027344 12.34375 11.96875 L 13.542969 10.503906 C 13.578125 10.46875 13.605469 10.433594 13.636719 10.398438 C 13.71875 10.289062 13.773438 10.167969 13.804688 10.039062 C 13.808594 10.03125 13.808594 10.027344 13.8125 10.023438 C 13.8125 10.011719 13.816406 10.003906 13.820312 9.992188 C 13.824219 9.988281 13.820312 9.976562 13.820312 9.972656 C 13.820312 9.960938 13.828125 9.953125 13.828125 9.945312 L 13.828125 7.441406 C 13.828125 7.277344 13.894531 7.117188 14.015625 7 C 14.121094 6.898438 14.261719 6.851562 14.398438 6.859375 C 14.535156 6.863281 14.660156 6.921875 14.753906 7.015625 C 14.855469 7.121094 14.910156 7.253906 14.910156 7.398438 L 14.910156 10.671875 Z M 14.90625 10.671875 "/>
<path style=" stroke:none;fill-rule:nonzero;fill:rgb(31.372549%,31.372549%,31.372549%);fill-opacity:1;" d="M 6.234375 14.203125 L 5.9375 14.203125 L 5.9375 12.453125 C 5.9375 11.914062 5.726562 11.40625 5.34375 11.019531 L 3.710938 9.390625 C 3.519531 9.195312 3.261719 9.089844 2.988281 9.089844 C 2.988281 9.089844 2.988281 9.089844 2.984375 9.089844 C 2.800781 9.089844 2.621094 9.140625 2.464844 9.230469 L 2.464844 7.4375 C 2.464844 7.140625 2.339844 6.855469 2.125 6.648438 C 1.921875 6.457031 1.65625 6.355469 1.390625 6.375 C 1.136719 6.386719 0.898438 6.492188 0.71875 6.675781 C 0.523438 6.871094 0.417969 7.125 0.417969 7.398438 L 0.417969 10.671875 C 0.417969 11.039062 0.5625 11.390625 0.824219 11.648438 L 2.796875 13.621094 L 2.796875 14.203125 L 2.390625 14.203125 C 2.257812 14.203125 2.152344 14.3125 2.152344 14.445312 L 2.152344 15.398438 C 2.152344 15.53125 2.257812 15.636719 2.390625 15.636719 L 6.230469 15.636719 C 6.363281 15.636719 6.46875 15.53125 6.46875 15.398438 L 6.46875 14.445312 C 6.472656 14.3125 6.363281 14.203125 6.234375 14.203125 Z M 3.207031 13.355469 L 1.164062 11.3125 C 0.996094 11.140625 0.898438 10.914062 0.898438 10.675781 L 0.898438 7.398438 C 0.898438 7.253906 0.957031 7.117188 1.054688 7.015625 C 1.152344 6.917969 1.277344 6.859375 1.410156 6.855469 C 1.550781 6.84375 1.6875 6.898438 1.796875 7 C 1.914062 7.109375 1.984375 7.269531 1.984375 7.4375 L 1.984375 9.941406 C 1.984375 9.953125 1.988281 9.957031 1.992188 9.96875 C 1.992188 9.972656 1.992188 9.984375 1.992188 9.992188 C 1.992188 10 1.996094 10.007812 2 10.019531 C 2 10.023438 2.003906 10.027344 2.003906 10.03125 C 2.035156 10.160156 2.089844 10.28125 2.171875 10.390625 C 2.203125 10.429688 2.234375 10.464844 2.25 10.480469 L 3.464844 11.964844 C 3.511719 12.023438 3.582031 12.050781 3.652344 12.050781 C 3.707031 12.050781 3.761719 12.03125 3.804688 11.996094 C 3.90625 11.914062 3.921875 11.761719 3.835938 11.65625 L 2.605469 10.152344 C 2.589844 10.136719 2.574219 10.117188 2.558594 10.097656 C 2.519531 10.046875 2.492188 9.992188 2.476562 9.9375 C 2.503906 9.859375 2.542969 9.785156 2.605469 9.722656 C 2.707031 9.621094 2.839844 9.5625 2.984375 9.5625 C 3.128906 9.5625 3.265625 9.621094 3.371094 9.722656 L 5 11.355469 C 5.292969 11.644531 5.453125 12.035156 5.453125 12.445312 L 5.453125 14.195312 L 3.273438 14.195312 L 3.273438 13.511719 C 3.277344 13.460938 3.25 13.398438 3.207031 13.355469 Z M 5.992188 15.160156 L 2.628906 15.160156 L 2.628906 14.683594 L 5.992188 14.683594 Z M 5.992188 15.160156 "/>
<path style=" stroke:none;fill-rule:nonzero;fill:rgb(31.372549%,31.372549%,31.372549%);fill-opacity:1;" d="M 3.78125 3.335938 C 3.816406 3.351562 3.855469 3.359375 3.894531 3.359375 C 3.984375 3.359375 4.0625 3.3125 4.109375 3.230469 C 4.167969 3.113281 4.121094 2.964844 4.003906 2.910156 C 3.886719 2.847656 3.738281 2.894531 3.679688 3.011719 L 3.679688 3.015625 C 3.652344 3.070312 3.644531 3.132812 3.664062 3.195312 C 3.683594 3.253906 3.726562 3.304688 3.78125 3.335938 Z M 3.78125 3.335938 "/>
<path style=" stroke:none;fill-rule:nonzero;fill:rgb(31.372549%,31.372549%,31.372549%);fill-opacity:1;" d="M 12.648438 5.1875 C 12.648438 2.570312 10.523438 0.4375 7.902344 0.4375 C 6.367188 0.4375 4.921875 1.183594 4.03125 2.433594 C 3.957031 2.542969 3.980469 2.695312 4.085938 2.769531 C 4.191406 2.84375 4.347656 2.820312 4.421875 2.714844 C 5.226562 1.589844 6.523438 0.917969 7.902344 0.917969 C 10.253906 0.925781 12.167969 2.839844 12.167969 5.1875 C 12.167969 7.539062 10.253906 9.453125 7.902344 9.460938 C 5.550781 9.453125 3.636719 7.539062 3.632812 5.1875 C 3.632812 4.710938 3.710938 4.238281 3.867188 3.785156 C 3.910156 3.660156 3.84375 3.527344 3.71875 3.480469 C 3.601562 3.441406 3.457031 3.507812 3.414062 3.628906 C 3.242188 4.128906 3.152344 4.652344 3.152344 5.1875 C 3.152344 7.808594 5.28125 9.9375 7.902344 9.9375 C 10.523438 9.9375 12.648438 7.808594 12.648438 5.1875 Z M 12.648438 5.1875 "/>
<path style=" stroke:none;fill-rule:nonzero;fill:rgb(31.372549%,31.372549%,31.372549%);fill-opacity:1;" d="M 7.902344 8.660156 C 9.8125 8.660156 11.371094 7.105469 11.371094 5.191406 C 11.371094 3.277344 9.8125 1.71875 7.902344 1.71875 C 5.988281 1.71875 4.433594 3.273438 4.433594 5.1875 C 4.433594 7.101562 5.988281 8.660156 7.902344 8.660156 Z M 7.902344 2.199219 C 9.546875 2.199219 10.890625 3.539062 10.890625 5.1875 C 10.890625 6.835938 9.546875 8.175781 7.902344 8.175781 C 6.253906 8.175781 4.910156 6.835938 4.910156 5.1875 C 4.910156 3.539062 6.253906 2.199219 7.902344 2.199219 Z M 7.902344 2.199219 "/>
<path style=" stroke:none;fill-rule:nonzero;fill:rgb(31.372549%,31.372549%,31.372549%);fill-opacity:1;" d="M 7.902344 6.355469 C 7.644531 6.355469 7.4375 6.148438 7.4375 5.890625 C 7.4375 5.761719 7.328125 5.652344 7.195312 5.652344 C 7.066406 5.652344 6.957031 5.761719 6.957031 5.890625 C 6.957031 6.328125 7.257812 6.691406 7.660156 6.800781 L 7.660156 6.957031 C 7.660156 7.089844 7.769531 7.195312 7.902344 7.195312 C 8.03125 7.195312 8.140625 7.089844 8.140625 6.957031 L 8.140625 6.800781 C 8.542969 6.695312 8.84375 6.328125 8.84375 5.890625 C 8.84375 5.371094 8.421875 4.945312 7.902344 4.945312 C 7.644531 4.945312 7.4375 4.738281 7.4375 4.484375 C 7.4375 4.226562 7.644531 4.019531 7.902344 4.019531 C 8.15625 4.019531 8.363281 4.226562 8.363281 4.484375 C 8.363281 4.613281 8.472656 4.722656 8.605469 4.722656 C 8.734375 4.722656 8.84375 4.613281 8.84375 4.484375 C 8.84375 4.046875 8.542969 3.683594 8.140625 3.574219 L 8.140625 3.417969 C 8.140625 3.285156 8.03125 3.175781 7.902344 3.175781 C 7.769531 3.175781 7.660156 3.285156 7.660156 3.417969 L 7.660156 3.574219 C 7.257812 3.679688 6.957031 4.042969 6.957031 4.484375 C 6.957031 5.003906 7.378906 5.425781 7.902344 5.425781 C 8.15625 5.425781 8.363281 5.636719 8.363281 5.890625 C 8.363281 6.148438 8.15625 6.355469 7.902344 6.355469 Z M 7.902344 6.355469 "/>
</g>
</svg>
