<svg width="24" height="24" viewBox="0 0 24 24" fill="none" xmlns="http://www.w3.org/2000/svg">
<path fill-rule="evenodd" clip-rule="evenodd" d="M12.0319 6.67528C10.5763 6.67528 9.23299 7.06235 8.08349 7.7192C7.19903 8.22459 6.07574 7.91126 5.57456 7.01935C5.07338 6.12744 5.3841 4.9947 6.26856 4.48931C7.95258 3.52704 9.91867 2.96289 12.0319 2.96289C18.0318 2.96289 23.1302 7.54129 23.1302 13.4813C23.1302 19.4213 18.0318 23.9997 12.0319 23.9997C6.60362 23.9997 1.92277 20.263 1.0673 15.1351C0.89865 14.1242 1.57462 13.1668 2.57713 12.9967C3.57963 12.8267 4.52904 13.5083 4.69769 14.5193C5.22654 17.6893 8.22429 20.2874 12.0319 20.2874C16.263 20.2874 19.4488 17.1143 19.4488 13.4813C19.4488 9.84837 16.263 6.67528 12.0319 6.67528Z" fill="#343EDF"/>
<path fill-rule="evenodd" clip-rule="evenodd" d="M7.44413 0.546892C8.3397 1.02797 8.67572 2.14396 8.19465 3.03953L6.47784 6.23555L9.83087 7.49252C10.7828 7.84937 11.2652 8.91033 10.9083 9.86224C10.5515 10.8142 9.49052 11.2966 8.53861 10.9397L3.48893 9.04671L3.4191 9.01361C2.33701 8.50078 1.97526 7.30702 2.27211 6.35571L2.32448 6.18785L4.95149 1.29741C5.43257 0.401833 6.54856 0.065817 7.44413 0.546892Z" fill="#23D288"/>
</svg>
