<?xml version="1.0" encoding="UTF-8"?>
<svg xmlns="http://www.w3.org/2000/svg" xmlns:xlink="http://www.w3.org/1999/xlink" width="16px" height="16px" viewBox="0 0 16 16" version="1.1">
<defs>
<filter id="alpha" filterUnits="objectBoundingBox" x="0%" y="0%" width="100%" height="100%">
  <feColorMatrix type="matrix" in="SourceGraphic" values="0 0 0 0 1 0 0 0 0 1 0 0 0 0 1 0 0 0 1 0"/>
</filter>
<mask id="mask0">
  <g filter="url(#alpha)">
<rect x="0" y="0" width="16" height="16" style="fill:rgb(0%,0%,0%);fill-opacity:0.301961;stroke:none;"/>
  </g>
</mask>
<clipPath id="clip1">
  <rect x="0" y="0" width="16" height="16"/>
</clipPath>
<g id="surface5" clip-path="url(#clip1)">
<path style=" stroke:none;fill-rule:nonzero;fill:rgb(21.568627%,27.843137%,30.980392%);fill-opacity:1;" d="M 3.75 10.75 L 6.75 10.75 L 6.75 5 L 2.75 5 L 2.75 9.75 C 2.75 10.300781 3.199219 10.75 3.75 10.75 Z M 3.75 10.75 "/>
</g>
</defs>
<g id="surface1">
<path style=" stroke:none;fill-rule:nonzero;fill:rgb(21.568627%,27.843137%,30.980392%);fill-opacity:1;" d="M 15.25 13.75 C 15.25 14.4375 14.6875 15 14 15 L 9.5 15 C 8.8125 15 8.25 14.4375 8.25 13.75 L 8.25 2.5 C 8.25 1.8125 8.8125 1.25 9.5 1.25 L 14 1.25 C 14.6875 1.25 15.25 1.8125 15.25 2.5 Z M 15.25 13.75 "/>
<path style=" stroke:none;fill-rule:nonzero;fill:rgb(27.058824%,35.294118%,39.215686%);fill-opacity:1;" d="M 9.5 1.25 C 8.8125 1.25 8.25 1.8125 8.25 2.5 L 8.25 13.75 C 8.25 13.925781 8.285156 14.089844 8.351562 14.242188 L 13.453125 1.25 Z M 9.5 1.25 "/>
<path style=" stroke:none;fill-rule:nonzero;fill:rgb(37.647059%,49.019608%,54.509804%);fill-opacity:1;" d="M 12.25 14 C 12.25 14.277344 12.027344 14.5 11.75 14.5 C 11.472656 14.5 11.25 14.277344 11.25 14 C 11.25 13.722656 11.472656 13.5 11.75 13.5 C 12.027344 13.5 12.25 13.722656 12.25 14 Z M 12.25 14 "/>
<path style=" stroke:none;fill-rule:nonzero;fill:rgb(37.647059%,49.019608%,54.509804%);fill-opacity:1;" d="M 10 2 L 10.25 2 L 10.25 2.25 L 10 2.25 Z M 10 2 "/>
<path style=" stroke:none;fill-rule:nonzero;fill:rgb(37.647059%,49.019608%,54.509804%);fill-opacity:1;" d="M 12.5 2.125 C 12.5 2.195312 12.445312 2.25 12.375 2.25 L 10.875 2.25 C 10.804688 2.25 10.75 2.195312 10.75 2.125 C 10.75 2.054688 10.804688 2 10.875 2 L 12.375 2 C 12.445312 2 12.5 2.054688 12.5 2.125 Z M 12.5 2.125 "/>
<path style=" stroke:none;fill-rule:nonzero;fill:rgb(37.647059%,49.019608%,54.509804%);fill-opacity:1;" d="M 8.75 3 L 14.75 3 L 14.75 13.25 L 8.75 13.25 Z M 8.75 3 "/>
<path style=" stroke:none;fill-rule:nonzero;fill:rgb(0%,90.196078%,46.27451%);fill-opacity:1;" d="M 0.75 5 L 14.75 5 L 14.75 11 L 0.75 11 Z M 0.75 5 "/>
<path style=" stroke:none;fill-rule:nonzero;fill:rgb(72.54902%,96.470588%,79.215686%);fill-opacity:1;" d="M 2.867188 10.125 C 2.808594 9.605469 2.394531 9.191406 1.875 9.132812 L 1.875 6.867188 C 2.394531 6.808594 2.808594 6.394531 2.867188 5.875 L 12.632812 5.875 C 12.691406 6.394531 13.105469 6.808594 13.625 6.867188 L 13.625 9.132812 C 13.105469 9.191406 12.691406 9.605469 12.632812 10.125 Z M 2.867188 10.125 "/>
<path style=" stroke:none;fill-rule:nonzero;fill:rgb(0%,78.431373%,32.54902%);fill-opacity:1;" d="M 12.523438 6 C 12.625 6.488281 13.011719 6.875 13.5 6.976562 L 13.5 9.023438 C 13.011719 9.125 12.625 9.511719 12.523438 10 L 2.976562 10 C 2.875 9.511719 2.488281 9.125 2 9.023438 L 2 6.976562 C 2.488281 6.875 2.875 6.488281 2.976562 6 Z M 12.75 5.75 L 2.75 5.75 C 2.75 6.300781 2.300781 6.75 1.75 6.75 L 1.75 9.25 C 2.300781 9.25 2.75 9.699219 2.75 10.25 L 12.75 10.25 C 12.75 9.699219 13.199219 9.25 13.75 9.25 L 13.75 6.75 C 13.199219 6.75 12.75 6.300781 12.75 5.75 Z M 12.75 5.75 "/>
<path style=" stroke:none;fill-rule:nonzero;fill:rgb(0%,78.431373%,32.54902%);fill-opacity:1;" d="M 11.25 7.625 C 11.457031 7.625 11.625 7.792969 11.625 8 C 11.625 8.207031 11.457031 8.375 11.25 8.375 C 11.042969 8.375 10.875 8.207031 10.875 8 C 10.875 7.792969 11.042969 7.625 11.25 7.625 Z M 11.25 7.375 C 10.90625 7.375 10.625 7.65625 10.625 8 C 10.625 8.34375 10.90625 8.625 11.25 8.625 C 11.59375 8.625 11.875 8.34375 11.875 8 C 11.875 7.65625 11.59375 7.375 11.25 7.375 Z M 11.25 7.375 "/>
<path style=" stroke:none;fill-rule:nonzero;fill:rgb(0%,78.431373%,32.54902%);fill-opacity:1;" d="M 4.25 7.625 C 4.457031 7.625 4.625 7.792969 4.625 8 C 4.625 8.207031 4.457031 8.375 4.25 8.375 C 4.042969 8.375 3.875 8.207031 3.875 8 C 3.875 7.792969 4.042969 7.625 4.25 7.625 Z M 4.25 7.375 C 3.90625 7.375 3.625 7.65625 3.625 8 C 3.625 8.34375 3.90625 8.625 4.25 8.625 C 4.59375 8.625 4.875 8.34375 4.875 8 C 4.875 7.65625 4.59375 7.375 4.25 7.375 Z M 4.25 7.375 "/>
<use xlink:href="#surface5" mask="url(#mask0)"/>
<path style=" stroke:none;fill-rule:nonzero;fill:rgb(41.176471%,94.117647%,68.235294%);fill-opacity:1;" d="M 14.75 4.75 L 14.75 10.75 L 4.5 10.75 C 3.949219 10.75 3.5 10.300781 3.5 9.75 L 3.5 4.75 Z M 14.75 4.75 "/>
<path style=" stroke:none;fill-rule:nonzero;fill:rgb(72.54902%,96.470588%,79.215686%);fill-opacity:1;" d="M 12.632812 9.875 C 12.691406 9.355469 13.105469 8.941406 13.625 8.882812 L 13.625 6.617188 C 13.105469 6.558594 12.691406 6.144531 12.632812 5.625 L 3.875 5.625 L 3.875 9.25 C 3.875 9.59375 4.15625 9.875 4.5 9.875 Z M 12.632812 9.875 "/>
<path style=" stroke:none;fill-rule:nonzero;fill:rgb(0%,78.431373%,32.54902%);fill-opacity:1;" d="M 4 5.75 L 12.523438 5.75 C 12.625 6.238281 13.011719 6.625 13.5 6.726562 L 13.5 8.773438 C 13.011719 8.875 12.625 9.261719 12.523438 9.75 L 4.5 9.75 C 4.222656 9.75 4 9.527344 4 9.25 Z M 3.75 5.5 C 3.75 5.925781 3.75 8.050781 3.75 9.25 C 3.75 9.664062 4.085938 10 4.5 10 L 12.75 10 C 12.75 9.449219 13.199219 9 13.75 9 L 13.75 6.5 C 13.199219 6.5 12.75 6.050781 12.75 5.5 Z M 3.75 5.5 "/>
<path style=" stroke:none;fill-rule:nonzero;fill:rgb(0%,90.196078%,46.27451%);fill-opacity:1;" d="M 7.75 9.375 C 6.992188 9.375 6.375 8.644531 6.375 7.75 C 6.375 6.855469 6.992188 6.125 7.75 6.125 C 8.507812 6.125 9.125 6.855469 9.125 7.75 C 9.125 8.644531 8.507812 9.375 7.75 9.375 Z M 7.75 9.375 "/>
<path style=" stroke:none;fill-rule:nonzero;fill:rgb(72.54902%,96.470588%,79.215686%);fill-opacity:1;" d="M 7.5 8.277344 L 7.5 8.1875 C 7.277344 8.070312 7.125 7.808594 7.125 7.5 C 7.125 7.085938 7.40625 6.75 7.75 6.75 C 8.09375 6.75 8.375 7.085938 8.375 7.5 C 8.375 7.808594 8.222656 8.070312 8 8.1875 L 8 8.277344 C 8.378906 8.351562 8.671875 8.585938 8.734375 8.878906 C 8.484375 9.183594 8.136719 9.375 7.75 9.375 C 7.363281 9.375 7.015625 9.183594 6.765625 8.878906 C 6.828125 8.585938 7.121094 8.351562 7.5 8.277344 Z M 7.5 8.277344 "/>
<path style=" stroke:none;fill-rule:nonzero;fill:rgb(0%,78.431373%,32.54902%);fill-opacity:1;" d="M 6.25 7.75 C 6.25 8.714844 6.921875 9.5 7.75 9.5 C 8.578125 9.5 9.25 8.714844 9.25 7.75 C 9.25 6.785156 8.578125 6 7.75 6 C 6.921875 6 6.25 6.785156 6.25 7.75 Z M 9 7.75 C 9 8.082031 8.910156 8.386719 8.757812 8.636719 C 8.621094 8.449219 8.382812 8.359375 8.125 8.300781 L 8.125 8.257812 C 8.355469 8.101562 8.5 7.8125 8.5 7.5 C 8.5 7.015625 8.164062 6.625 7.75 6.625 C 7.335938 6.625 7 7.015625 7 7.5 C 7 7.8125 7.144531 8.101562 7.375 8.257812 L 7.375 8.300781 C 7.117188 8.359375 6.878906 8.449219 6.742188 8.632812 C 6.589844 8.386719 6.5 8.082031 6.5 7.75 C 6.5 6.921875 7.0625 6.25 7.75 6.25 C 8.4375 6.25 9 6.921875 9 7.75 Z M 6.925781 8.875 C 6.925781 8.875 6.925781 8.875 6.929688 8.871094 C 6.921875 8.863281 6.910156 8.859375 6.902344 8.851562 C 6.964844 8.691406 7.148438 8.597656 7.523438 8.523438 C 7.582031 8.511719 7.625 8.460938 7.625 8.402344 L 7.625 8.1875 C 7.625 8.140625 7.597656 8.097656 7.558594 8.078125 C 7.371094 7.976562 7.25 7.75 7.25 7.5 C 7.25 7.15625 7.472656 6.875 7.75 6.875 C 8.027344 6.875 8.25 7.15625 8.25 7.5 C 8.25 7.75 8.128906 7.976562 7.941406 8.078125 C 7.902344 8.097656 7.875 8.140625 7.875 8.1875 L 7.875 8.402344 C 7.875 8.460938 7.917969 8.511719 7.976562 8.523438 C 8.351562 8.597656 8.535156 8.691406 8.597656 8.851562 C 8.582031 8.867188 8.5625 8.878906 8.546875 8.894531 C 8.546875 8.898438 8.550781 8.898438 8.550781 8.898438 C 8.335938 9.117188 8.054688 9.25 7.75 9.25 C 7.433594 9.25 7.144531 9.109375 6.925781 8.875 Z M 6.925781 8.875 "/>
<path style=" stroke:none;fill-rule:nonzero;fill:rgb(0%,78.431373%,32.54902%);fill-opacity:1;" d="M 4 5.75 L 12.523438 5.75 C 12.625 6.238281 13.011719 6.625 13.5 6.726562 L 13.5 8.773438 C 13.011719 8.875 12.625 9.261719 12.523438 9.75 L 4.5 9.75 C 4.222656 9.75 4 9.527344 4 9.25 Z M 3.75 5.5 L 3.75 9.25 C 3.75 9.664062 4.085938 10 4.5 10 L 12.75 10 C 12.75 9.449219 13.199219 9 13.75 9 L 13.75 6.5 C 13.199219 6.5 12.75 6.050781 12.75 5.5 Z M 3.75 5.5 "/>
<path style=" stroke:none;fill-rule:nonzero;fill:rgb(0%,78.431373%,32.54902%);fill-opacity:1;" d="M 4.5 3 L 5.25 3 L 5.25 8.75 L 4.5 8.75 C 3.949219 8.75 3.5 9.199219 3.5 9.75 L 3.5 4 C 3.5 3.449219 3.949219 3 4.5 3 Z M 4.5 3 "/>
<path style=" stroke:none;fill-rule:nonzero;fill:rgb(0%,78.431373%,32.54902%);fill-opacity:1;" d="M 11.25 7.375 C 11.457031 7.375 11.625 7.542969 11.625 7.75 C 11.625 7.957031 11.457031 8.125 11.25 8.125 C 11.042969 8.125 10.875 7.957031 10.875 7.75 C 10.875 7.542969 11.042969 7.375 11.25 7.375 Z M 11.25 7.125 C 10.90625 7.125 10.625 7.40625 10.625 7.75 C 10.625 8.09375 10.90625 8.375 11.25 8.375 C 11.59375 8.375 11.875 8.09375 11.875 7.75 C 11.875 7.40625 11.59375 7.125 11.25 7.125 Z M 11.25 7.125 "/>
<path style=" stroke:none;fill-rule:nonzero;fill:rgb(0%,78.431373%,32.54902%);fill-opacity:1;" d="M 0.75 11 L 14.75 11 L 14.75 11.25 L 0.75 11.25 Z M 0.75 11 "/>
</g>
</svg>
