<?xml version="1.0" encoding="UTF-8"?>
<svg xmlns="http://www.w3.org/2000/svg" xmlns:xlink="http://www.w3.org/1999/xlink" width="25px" height="25px" viewBox="0 0 25 25" version="1.1">
<g id="surface1">
<path style=" stroke:none;fill-rule:nonzero;fill:rgb(0%,0.392157%,0.392157%);fill-opacity:1;" d="M 24.035156 14.347656 C 24.035156 14.542969 23.875 14.699219 23.679688 14.699219 L 1.378906 14.699219 C 1.183594 14.699219 1.027344 14.539062 1.027344 14.347656 L 1.027344 10.65625 C 1.027344 10.460938 1.183594 10.304688 1.378906 10.304688 L 23.675781 10.304688 C 23.871094 10.304688 24.03125 10.464844 24.03125 10.65625 L 24.03125 14.347656 Z M 24.035156 14.347656 "/>
<path style=" stroke:none;fill-rule:nonzero;fill:rgb(100%,85.882353%,0%);fill-opacity:1;" d="M 1.785156 10.855469 L 2.308594 10.855469 L 2.429688 11.773438 L 2.433594 11.773438 L 2.574219 10.855469 L 3.171875 10.855469 L 3.304688 11.773438 L 3.3125 11.773438 L 3.4375 10.855469 L 3.953125 10.855469 L 3.640625 12.320312 L 3.011719 12.320312 L 2.871094 11.367188 L 2.867188 11.367188 L 2.734375 12.320312 L 2.105469 12.320312 Z M 1.785156 10.855469 "/>
<path style=" stroke:none;fill-rule:nonzero;fill:rgb(100%,85.882353%,0%);fill-opacity:1;" d="M 4.292969 10.855469 L 5.40625 10.855469 L 5.40625 11.234375 L 4.851562 11.234375 L 4.851562 11.390625 L 5.363281 11.390625 L 5.363281 11.769531 L 4.851562 11.769531 L 4.851562 11.9375 L 5.425781 11.9375 L 5.425781 12.320312 L 4.292969 12.320312 Z M 4.292969 10.855469 "/>
<path style=" stroke:none;fill-rule:nonzero;fill:rgb(100%,85.882353%,0%);fill-opacity:1;" d="M 6.59375 11.269531 C 6.59375 11.175781 6.542969 11.144531 6.46875 11.144531 C 6.375 11.144531 6.335938 11.1875 6.335938 11.230469 C 6.335938 11.285156 6.367188 11.304688 6.429688 11.324219 C 6.542969 11.355469 6.75 11.394531 6.894531 11.457031 C 7.078125 11.535156 7.160156 11.667969 7.160156 11.84375 C 7.160156 12.203125 6.867188 12.355469 6.453125 12.355469 C 6.101562 12.355469 5.773438 12.242188 5.773438 11.863281 L 6.332031 11.863281 C 6.332031 11.90625 6.339844 11.945312 6.359375 11.976562 C 6.382812 12 6.417969 12.019531 6.476562 12.019531 C 6.5625 12.019531 6.617188 11.96875 6.617188 11.902344 C 6.617188 11.847656 6.574219 11.816406 6.523438 11.800781 L 6.109375 11.679688 C 5.882812 11.609375 5.804688 11.476562 5.804688 11.289062 C 5.804688 10.980469 6.050781 10.808594 6.480469 10.808594 C 6.84375 10.808594 7.121094 10.925781 7.121094 11.265625 L 6.59375 11.265625 Z M 6.59375 11.269531 "/>
<path style=" stroke:none;fill-rule:nonzero;fill:rgb(100%,85.882353%,0%);fill-opacity:1;" d="M 7.835938 11.246094 L 7.472656 11.246094 L 7.472656 10.855469 L 8.777344 10.855469 L 8.777344 11.246094 L 8.417969 11.246094 L 8.417969 12.320312 L 7.835938 12.320312 Z M 7.835938 11.246094 "/>
<path style=" stroke:none;fill-rule:nonzero;fill:rgb(100%,85.882353%,0%);fill-opacity:1;" d="M 9.15625 10.855469 L 10.269531 10.855469 L 10.269531 11.234375 L 9.710938 11.234375 L 9.710938 11.390625 L 10.226562 11.390625 L 10.226562 11.769531 L 9.710938 11.769531 L 9.710938 11.9375 L 10.289062 11.9375 L 10.289062 12.320312 L 9.15625 12.320312 Z M 9.15625 10.855469 "/>
<path style=" stroke:none;fill-rule:nonzero;fill:rgb(100%,85.882353%,0%);fill-opacity:1;" d="M 10.703125 10.855469 L 11.566406 10.855469 C 11.882812 10.855469 12.066406 10.949219 12.066406 11.226562 C 12.066406 11.394531 11.992188 11.523438 11.773438 11.574219 L 11.773438 11.578125 C 11.917969 11.589844 11.992188 11.652344 12.023438 11.769531 C 12.054688 11.894531 12.050781 12.101562 12.121094 12.320312 L 11.554688 12.320312 C 11.519531 12.207031 11.5 12.023438 11.480469 11.902344 C 11.46875 11.828125 11.429688 11.800781 11.339844 11.800781 L 11.273438 11.800781 L 11.273438 12.324219 L 10.707031 12.324219 L 10.707031 10.855469 Z M 11.320312 11.464844 C 11.429688 11.464844 11.511719 11.425781 11.511719 11.316406 C 11.511719 11.207031 11.433594 11.183594 11.324219 11.183594 L 11.269531 11.183594 L 11.269531 11.460938 L 11.320312 11.460938 Z M 11.320312 11.464844 "/>
<path style=" stroke:none;fill-rule:nonzero;fill:rgb(100%,85.882353%,0%);fill-opacity:1;" d="M 12.507812 10.855469 L 13.203125 10.855469 L 13.511719 11.742188 L 13.515625 11.742188 L 13.515625 10.855469 L 13.988281 10.855469 L 13.988281 12.320312 L 13.292969 12.320312 L 12.984375 11.425781 L 12.980469 11.425781 L 12.980469 12.320312 L 12.507812 12.320312 Z M 12.507812 10.855469 "/>
<path style=" stroke:none;fill-rule:nonzero;fill:rgb(100%,85.882353%,0%);fill-opacity:1;" d="M 7.148438 13.582031 C 7.148438 13.933594 6.894531 14.109375 6.453125 14.109375 C 6.011719 14.109375 5.757812 13.933594 5.757812 13.582031 L 5.757812 12.605469 L 6.339844 12.605469 L 6.339844 13.558594 C 6.339844 13.671875 6.390625 13.71875 6.453125 13.71875 C 6.515625 13.71875 6.566406 13.671875 6.566406 13.558594 L 6.566406 12.605469 L 7.148438 12.605469 Z M 7.148438 13.582031 "/>
<path style=" stroke:none;fill-rule:nonzero;fill:rgb(100%,85.882353%,0%);fill-opacity:1;" d="M 7.609375 12.605469 L 8.308594 12.605469 L 8.621094 13.496094 L 8.625 13.496094 L 8.625 12.605469 L 9.09375 12.605469 L 9.09375 14.070312 L 8.398438 14.070312 L 8.085938 13.179688 L 8.082031 13.179688 L 8.082031 14.070312 L 7.609375 14.070312 Z M 7.609375 12.605469 "/>
<path style=" stroke:none;fill-rule:nonzero;fill:rgb(100%,85.882353%,0%);fill-opacity:1;" d="M 9.570312 12.605469 L 10.148438 12.605469 L 10.148438 14.070312 L 9.570312 14.070312 Z M 9.570312 12.605469 "/>
<path style=" stroke:none;fill-rule:nonzero;fill:rgb(100%,85.882353%,0%);fill-opacity:1;" d="M 11.328125 12.570312 C 11.832031 12.570312 12.082031 12.882812 12.082031 13.339844 C 12.082031 13.796875 11.828125 14.109375 11.328125 14.109375 C 10.820312 14.109375 10.570312 13.796875 10.570312 13.339844 C 10.570312 12.882812 10.820312 12.570312 11.328125 12.570312 M 11.328125 13.730469 C 11.414062 13.730469 11.484375 13.679688 11.484375 13.339844 C 11.484375 13.011719 11.421875 12.949219 11.328125 12.949219 C 11.234375 12.949219 11.167969 13.007812 11.167969 13.339844 C 11.167969 13.679688 11.238281 13.730469 11.328125 13.730469 "/>
<path style=" stroke:none;fill-rule:nonzero;fill:rgb(100%,85.882353%,0%);fill-opacity:1;" d="M 12.507812 12.605469 L 13.203125 12.605469 L 13.511719 13.496094 L 13.515625 13.496094 L 13.515625 12.605469 L 13.988281 12.605469 L 13.988281 14.070312 L 13.292969 14.070312 L 12.984375 13.179688 L 12.980469 13.179688 L 12.980469 14.070312 L 12.507812 14.070312 Z M 12.507812 12.605469 "/>
<path style=" stroke:none;fill-rule:nonzero;fill:rgb(100%,85.882353%,0%);fill-opacity:1;" d="M 19.449219 10.832031 L 19.203125 10.832031 L 18.925781 12.886719 L 18.917969 12.886719 L 18.617188 10.832031 L 17.277344 10.832031 L 16.976562 12.886719 L 16.96875 12.886719 L 16.691406 10.832031 L 15.527344 10.832031 L 16.234375 14.097656 L 17.636719 14.097656 L 17.941406 11.980469 L 17.949219 11.980469 L 18.25 14.097656 L 19.65625 14.097656 L 19.722656 13.773438 C 19.542969 13.582031 19.449219 13.328125 19.449219 13.003906 Z M 19.449219 10.832031 "/>
<path style=" stroke:none;fill-rule:nonzero;fill:rgb(100%,100%,100%);fill-opacity:1;" d="M 19.449219 10.832031 L 19.449219 13.003906 C 19.449219 13.324219 19.542969 13.582031 19.722656 13.773438 L 20.359375 10.832031 Z M 19.449219 10.832031 "/>
<path style=" stroke:none;fill-rule:nonzero;fill:rgb(100%,85.882353%,0%);fill-opacity:1;" d="M 21.261719 10.832031 L 21.261719 12.949219 C 21.261719 13.207031 21.140625 13.304688 21.003906 13.304688 C 20.871094 13.304688 20.746094 13.207031 20.746094 12.949219 L 20.746094 10.832031 L 20.472656 10.832031 L 19.820312 13.855469 C 20.085938 14.070312 20.484375 14.1875 21.003906 14.1875 C 21.988281 14.1875 22.558594 13.792969 22.558594 13.007812 L 22.558594 10.835938 L 21.261719 10.835938 Z M 21.261719 10.832031 "/>
<path style=" stroke:none;fill-rule:nonzero;fill:rgb(100%,85.882353%,0%);fill-opacity:1;" d="M 14.679688 10.832031 L 14.484375 10.832031 L 15.179688 14.097656 L 15.371094 14.097656 Z M 14.679688 10.832031 "/>
<path style=" stroke:none;fill-rule:nonzero;fill:rgb(100%,85.882353%,0%);fill-opacity:1;" d="M 15.707031 14.097656 L 15.898438 14.097656 L 15.203125 10.832031 L 15.011719 10.832031 Z M 15.707031 14.097656 "/>
<path style=" stroke:none;fill-rule:nonzero;fill:rgb(100%,85.882353%,0%);fill-opacity:1;" d="M 22.945312 10.988281 C 22.945312 10.964844 22.933594 10.957031 22.910156 10.957031 C 22.894531 10.957031 22.875 10.964844 22.875 10.984375 C 22.875 11.007812 22.894531 11.011719 22.914062 11.015625 C 22.945312 11.023438 22.996094 11.035156 22.996094 11.078125 C 22.996094 11.132812 22.949219 11.148438 22.902344 11.148438 C 22.851562 11.148438 22.816406 11.132812 22.816406 11.078125 L 22.863281 11.078125 C 22.863281 11.101562 22.875 11.117188 22.898438 11.117188 C 22.917969 11.117188 22.941406 11.113281 22.941406 11.089844 C 22.941406 11.0625 22.910156 11.0625 22.890625 11.058594 C 22.859375 11.050781 22.816406 11.039062 22.816406 10.996094 C 22.816406 10.945312 22.863281 10.925781 22.910156 10.925781 C 22.953125 10.925781 22.984375 10.945312 22.984375 10.988281 Z M 22.945312 10.988281 "/>
<path style=" stroke:none;fill-rule:nonzero;fill:rgb(100%,85.882353%,0%);fill-opacity:1;" d="M 23.167969 11.144531 L 23.128906 11.144531 L 23.070312 10.957031 L 23.070312 11.144531 L 23.023438 11.144531 L 23.023438 10.929688 L 23.101562 10.929688 L 23.148438 11.085938 L 23.199219 10.929688 L 23.269531 10.929688 L 23.269531 11.144531 L 23.230469 11.144531 L 23.230469 10.957031 Z M 23.167969 11.144531 "/>
</g>
</svg>
